# xmcd
#
# Track frame offsets: 
#        150
#        19035
#        31198
#        45826
#        62696
#        79092
#        93863
#        110033
#        126625
#        142433
#        160650
#        179597
#        194589
#        212610
#        236470
#
# Disc length: 3389 seconds
#
# Revision: 0
# Processed by: cddbd v1.5.2PL0 Copyright (c) Steve Scherf et al.
# Submitted via: ExactAudioCopy v1.0b1
#
DISCID=d00d3b0f
DTITLE=Ronnie Milsap - The Music of Ronnie Milsap CD 2 (of 3)
DYEAR=2010
DGENRE=Crossover
TTITLE0=Why Don't You Spend the Night
TTITLE1=My Heart
TTITLE2=Cowboys and Clowns
TTITLE3=Smoky Mountain Rain
TTITLE4=Am I Losing You
TTITLE5=(There's) No Gettin' Over Me
TTITLE6=I Wouldn't Have Missed It for the World
TTITLE7=Any Day Now
TTITLE8=He Got You
TTITLE9=Inside
TTITLE10=Stranger in My House
TTITLE11=Don't You Know How Much I Love You
TTITLE12=Show Her
TTITLE13=Still Losing You
TTITLE14=She Keeps the Home Fires Burning
EXTD=RCA Nashvile/Legacy 88697 76096 2
EXTT0=
EXTT1=
EXTT2=
EXTT3=
EXTT4=
EXTT5=
EXTT6=
EXTT7=
EXTT8=
EXTT9=
EXTT10=
EXTT11=
EXTT12=
EXTT13=
EXTT14=
PLAYORDER=
